<svg width="25" height="20" viewBox="0 0 25 20" fill="none" xmlns="http://www.w3.org/2000/svg">
<path d="M1.4028 8.42348C0.675173 8.42348 0.0853127 9.01334 0.0853127 9.74097C0.0853127 10.4686 0.675173 11.0585 1.4028 11.0585L1.4028 8.42348ZM24.2926 10.6726C24.8071 10.1581 24.8071 9.32387 24.2926 8.80936L15.9081 0.424914C15.3936 -0.0895967 14.5594 -0.0895967 14.0449 0.424914C13.5304 0.939425 13.5304 1.77361 14.0449 2.28812L21.4977 9.74097L14.0449 17.1938C13.5304 17.7083 13.5304 18.5425 14.0449 19.057C14.5594 19.5715 15.3936 19.5715 15.9081 19.057L24.2926 10.6726ZM1.4028 11.0585L23.361 11.0585V8.42348L1.4028 8.42348L1.4028 11.0585Z" fill="#003087"/>
</svg>
