<svg width="19" height="18" viewBox="0 0 19 18" fill="none" xmlns="http://www.w3.org/2000/svg">
<path d="M1.14377 15.3636C0.629262 15.8781 0.629262 16.7123 1.14377 17.2268C1.65828 17.7413 2.49247 17.7413 3.00698 17.2268L1.14377 15.3636ZM18.2421 1.44592C18.2421 0.718294 17.6523 0.128435 16.9246 0.128436L5.06722 0.128435C4.33959 0.128436 3.74973 0.718295 3.74973 1.44592C3.74973 2.17355 4.33959 2.76341 5.06722 2.76341L15.6071 2.76341L15.6071 13.3033C15.6071 14.031 16.197 14.6208 16.9246 14.6208C17.6522 14.6208 18.2421 14.031 18.2421 13.3033L18.2421 1.44592ZM3.00698 17.2268L17.8562 2.37753L15.993 0.514319L1.14377 15.3636L3.00698 17.2268Z" fill="#003087"/>
</svg>
