<svg width="25" height="20" viewBox="0 0 25 20" fill="none" xmlns="http://www.w3.org/2000/svg">
<path d="M23.5293 11.0585C24.2569 11.0585 24.8468 10.4686 24.8468 9.74097C24.8468 9.01334 24.2569 8.42348 23.5293 8.42348V11.0585ZM0.639511 8.80936C0.124998 9.32387 0.124998 10.1581 0.639511 10.6726L9.02396 19.057C9.53847 19.5715 10.3727 19.5715 10.8872 19.057C11.4017 18.5425 11.4017 17.7083 10.8872 17.1938L3.43433 9.74097L10.8872 2.28812C11.4017 1.77361 11.4017 0.939425 10.8872 0.424914C10.3727 -0.0895967 9.53847 -0.0895967 9.02396 0.424914L0.639511 8.80936ZM23.5293 8.42348L1.57112 8.42348V11.0585L23.5293 11.0585V8.42348Z" fill="#003087"/>
</svg>
