<svg width="9" height="16" viewBox="0 0 9 16" fill="none" xmlns="http://www.w3.org/2000/svg">
<path d="M7.02222 6.84399C6.46993 6.84399 6.02222 7.29171 6.02222 7.84399C6.02222 8.39628 6.46993 8.84399 7.02222 8.84399V6.84399ZM8.13319 8.5511C8.52371 8.16058 8.52371 7.52741 8.13319 7.13689L1.76922 0.772927C1.3787 0.382402 0.745535 0.382402 0.355011 0.772927C-0.035513 1.16345 -0.035513 1.79662 0.355011 2.18714L6.01187 7.84399L0.355011 13.5008C-0.035513 13.8914 -0.035513 14.5245 0.355011 14.9151C0.745535 15.3056 1.3787 15.3056 1.76922 14.9151L8.13319 8.5511ZM7.02222 8.84399H7.42608V6.84399H7.02222V8.84399Z" fill="#003087"/>
</svg>
